<?xml version="1.0" standalone="no"?>
<!DOCTYPE svg PUBLIC "-//W3C//DTD SVG 20010904//EN"
 "http://www.w3.org/TR/2001/REC-SVG-20010904/DTD/svg10.dtd">
<svg version="1.0" xmlns="http://www.w3.org/2000/svg"
 width="512.000000pt" height="512.000000pt" viewBox="0 0 512.000000 512.000000"
 preserveAspectRatio="xMidYMid meet">
<metadata>
Created by potrace 1.11, written by Peter Selinger 2001-2013
</metadata>
<g transform="translate(0.000000,512.000000) scale(0.100000,-0.100000)"
fill="#000000" stroke="none">
<path d="M735 5109 c-329 -62 -600 -306 -702 -634 l-28 -90 -3 -1780 c-2
-1321 0 -1799 9 -1855 52 -336 304 -616 649 -722 l75 -23 1780 -3 c1322 -2
1799 0 1855 9 329 51 604 293 717 629 l28 85 3 1785 c2 1325 0 1804 -9 1860
-51 329 -293 604 -629 717 l-85 28 -1805 1 c-1078 1 -1825 -2 -1855 -7z m3619
-364 c190 -50 341 -201 390 -392 14 -54 16 -251 16 -1795 0 -1922 5 -1784 -67
-1920 -43 -82 -138 -175 -222 -217 -128 -65 -6 -61 -1911 -61 -1923 0 -1785
-5 -1923 67 -81 43 -174 138 -216 222 -65 128 -61 5 -61 1913 0 1523 2 1741
15 1792 49 186 192 332 380 387 56 16 174 18 1800 18 1531 1 1748 -1 1799 -14z"/>
<path d="M2135 3813 l-460 -415 -237 -677 c-131 -372 -238 -680 -238 -686 0
-9 95 -322 209 -691 l31 -102 396 -187 395 -187 438 177 438 177 333 446 c183
245 336 460 341 477 4 16 51 302 105 635 l97 605 -248 360 c-136 198 -249 361
-250 363 -2 2 -881 123 -887 121 -2 0 -210 -187 -463 -416z m882 67 c163 -22
297 -41 298 -43 1 -1 81 -118 178 -259 97 -142 177 -266 177 -276 0 -11 -38
-254 -85 -541 l-85 -523 -293 -391 -293 -392 -330 -133 c-181 -72 -333 -132
-338 -132 -5 0 -134 59 -286 131 l-278 131 -86 282 c-47 155 -86 287 -86 294
0 19 410 1185 423 1204 23 33 759 688 773 688 8 0 148 -18 311 -40z"/>
<path d="M3213 3398 c-47 -23 -53 -103 -10 -133 74 -52 166 45 110 114 -21 25
-70 35 -100 19z"/>
<path d="M2366 3179 c-20 -16 -26 -29 -26 -59 0 -55 27 -85 79 -85 54 0 85 30
85 81 0 71 -81 108 -138 63z"/>
<path d="M2895 2458 c-54 -29 -60 -84 -16 -129 39 -38 74 -38 113 1 26 27 30
36 25 68 -10 61 -68 90 -122 60z"/>
<path d="M1945 2238 c-41 -22 -56 -67 -39 -113 8 -19 55 -45 84 -45 31 0 80
53 80 85 0 33 -50 85 -82 85 -13 0 -32 -6 -43 -12z"/>
<path d="M2376 1609 c-33 -26 -35 -75 -6 -107 31 -33 92 -30 119 4 12 15 21
37 21 49 0 12 -9 34 -21 49 -26 33 -75 35 -113 5z"/>
</g>
</svg>
