<?xml version="1.0" standalone="no"?>
<!DOCTYPE svg PUBLIC "-//W3C//DTD SVG 20010904//EN"
 "http://www.w3.org/TR/2001/REC-SVG-20010904/DTD/svg10.dtd">
<svg version="1.0" xmlns="http://www.w3.org/2000/svg"
 width="2000.000000pt" height="2000.000000pt" viewBox="0 0 2000.000000 2000.000000"
 preserveAspectRatio="xMidYMid meet">
<metadata>
Created by potrace 1.11, written by Peter Selinger 2001-2013
</metadata>
<g transform="translate(0.000000,2000.000000) scale(0.100000,-0.100000)"
fill="#000000" stroke="none">
<path d="M0 10000 l0 -10000 10000 0 10000 0 0 10000 0 10000 -10000 0 -10000
0 0 -10000z m11865 6590 c891 -121 1629 -223 1641 -225 30 -6 1960 -2848 1956
-2879 -2 -13 -193 -1211 -426 -2663 l-422 -2640 -1409 -1913 c-1385 -1880
-1410 -1913 -1460 -1936 -27 -12 -810 -333 -1738 -714 l-1688 -691 -1521 729
-1521 729 -463 1534 c-255 844 -466 1550 -469 1569 -4 28 192 603 1003 2947
l1007 2912 1894 1731 1895 1730 50 0 c28 0 780 -99 1671 -220z"/>
<path d="M12900 13634 c-74 -20 -132 -56 -173 -107 -48 -59 -64 -94 -77 -169
-27 -152 57 -304 201 -367 133 -58 303 -19 392 92 48 59 64 94 77 169 27 152
-57 304 -201 367 -63 28 -152 34 -219 15z"/>
<path d="M9123 12675 c-75 -21 -122 -47 -169 -94 -210 -210 -102 -562 192
-622 107 -22 241 20 320 100 181 182 130 479 -100 591 -76 37 -168 46 -243 25z"/>
<path d="M11463 9305 c-75 -21 -122 -47 -169 -94 -210 -210 -102 -562 192
-622 107 -22 241 20 320 100 181 182 130 479 -100 591 -76 37 -168 46 -243 25z"/>
<path d="M7133 8285 c-75 -21 -122 -47 -169 -94 -174 -174 -132 -466 83 -584
218 -118 488 14 533 261 13 74 2 149 -34 226 -68 147 -258 235 -413 191z"/>
<path d="M9160 5434 c-74 -20 -132 -56 -173 -107 -48 -59 -64 -94 -77 -169
-27 -152 57 -304 201 -367 133 -58 303 -19 392 92 48 59 64 94 77 169 27 152
-57 304 -201 367 -63 28 -152 34 -219 15z"/>
</g>
</svg>
